<svg xmlns="http://www.w3.org/2000/svg" viewBox="0 0 1200 630" width="1200" height="630">
  <defs>
    <linearGradient id="bg" x1="0" y1="0" x2="1" y2="1">
      <stop offset="0" stop-color="#0f1115"/>
      <stop offset="1" stop-color="#181b22"/>
    </linearGradient>
  </defs>
  <rect width="1200" height="630" fill="url(#bg)"/>
  <g transform="translate(80 160)">
    <rect x="0"   y="0"   width="150" height="100" rx="14" fill="#f5c86b"/>
    <rect x="170" y="0"   width="150" height="100" rx="14" fill="#8cd28e"/>
    <rect x="340" y="0"   width="150" height="100" rx="14" fill="#ef9e9e"/>
    <rect x="510" y="0"   width="150" height="100" rx="14" fill="#b49cf0"/>
    <rect x="0"   y="120" width="150" height="100" rx="14" fill="#1f232c"/>
    <rect x="170" y="120" width="150" height="100" rx="14" fill="#1f232c"/>
    <rect x="340" y="120" width="150" height="100" rx="14" fill="#1f232c"/>
    <rect x="510" y="120" width="150" height="100" rx="14" fill="#1f232c"/>
  </g>
  <g transform="translate(760 180)" fill="#e8eaf0" font-family="-apple-system, Segoe UI, Roboto, Helvetica, Arial, sans-serif">
    <text x="0" y="0" font-size="92" font-weight="800" letter-spacing="-1.5">Foldwink</text>
    <text x="0" y="40" font-size="20" font-weight="600" fill="#8a8f9a" letter-spacing="3">BY NEURAL VOID</text>
    <text x="0" y="90" font-size="30" font-weight="500" fill="#8a8f9a">Daily grouping puzzle</text>
    <g transform="translate(0 150)" font-size="28" font-weight="500" fill="#c4c8d2">
      <text y="0">16 cards · 4 hidden groups · 4 mistakes</text>
      <text y="44">Foldwink Tabs reveal the categories</text>
    </g>
  </g>
  <path d="M1090 90 l16 34 l38 4 l-29 25 l10 37 l-35-20 l-35 20 l10-37 l-29-25 l38-4 z" fill="#7cc4ff" opacity="0.9"/>
</svg>
